<mxfile host="app.diagrams.net" modified="2024-05-09T07:56:20.777Z" agent="Mozilla/5.0 (Windows NT 10.0; Win64; x64) AppleWebKit/537.36 (KHTML, like Gecko) Chrome/124.0.0.0 Safari/537.36" etag="AJnzJpJfTupurMNzi0hZ" version="24.2.2" type="device">
  <diagram name="Halaman-1" id="ojjaVOHDULAqzLnZZPJ9">
    <mxGraphModel dx="1050" dy="569" grid="1" gridSize="10" guides="1" tooltips="1" connect="1" arrows="1" fold="1" page="1" pageScale="1" pageWidth="827" pageHeight="1169" math="0" shadow="0">
      <root>
        <mxCell id="0" />
        <mxCell id="1" parent="0" />
        <mxCell id="imG781Llk6iRTIa5phaK-3" value="" style="edgeStyle=orthogonalEdgeStyle;rounded=0;orthogonalLoop=1;jettySize=auto;html=1;" edge="1" parent="1" source="imG781Llk6iRTIa5phaK-1" target="imG781Llk6iRTIa5phaK-2">
          <mxGeometry relative="1" as="geometry" />
        </mxCell>
        <mxCell id="imG781Llk6iRTIa5phaK-15" value="" style="edgeStyle=orthogonalEdgeStyle;rounded=0;orthogonalLoop=1;jettySize=auto;html=1;" edge="1" parent="1" source="imG781Llk6iRTIa5phaK-1" target="imG781Llk6iRTIa5phaK-14">
          <mxGeometry relative="1" as="geometry" />
        </mxCell>
        <mxCell id="imG781Llk6iRTIa5phaK-1" value="Operator" style="rounded=0;whiteSpace=wrap;html=1;" vertex="1" parent="1">
          <mxGeometry x="110" y="170" width="120" height="60" as="geometry" />
        </mxCell>
        <mxCell id="imG781Llk6iRTIa5phaK-5" value="" style="edgeStyle=orthogonalEdgeStyle;rounded=0;orthogonalLoop=1;jettySize=auto;html=1;" edge="1" parent="1" source="imG781Llk6iRTIa5phaK-2" target="imG781Llk6iRTIa5phaK-4">
          <mxGeometry relative="1" as="geometry" />
        </mxCell>
        <mxCell id="imG781Llk6iRTIa5phaK-2" value="m to m" style="rhombus;whiteSpace=wrap;html=1;rounded=0;" vertex="1" parent="1">
          <mxGeometry x="310" y="160" width="80" height="80" as="geometry" />
        </mxCell>
        <mxCell id="imG781Llk6iRTIa5phaK-7" value="" style="edgeStyle=orthogonalEdgeStyle;rounded=0;orthogonalLoop=1;jettySize=auto;html=1;" edge="1" parent="1" source="imG781Llk6iRTIa5phaK-4" target="imG781Llk6iRTIa5phaK-6">
          <mxGeometry relative="1" as="geometry" />
        </mxCell>
        <mxCell id="imG781Llk6iRTIa5phaK-4" value="Film" style="whiteSpace=wrap;html=1;rounded=0;" vertex="1" parent="1">
          <mxGeometry x="470" y="170" width="120" height="60" as="geometry" />
        </mxCell>
        <mxCell id="imG781Llk6iRTIa5phaK-9" value="" style="edgeStyle=orthogonalEdgeStyle;rounded=0;orthogonalLoop=1;jettySize=auto;html=1;" edge="1" parent="1" source="imG781Llk6iRTIa5phaK-6" target="imG781Llk6iRTIa5phaK-8">
          <mxGeometry relative="1" as="geometry" />
        </mxCell>
        <mxCell id="imG781Llk6iRTIa5phaK-6" value="m to m" style="rhombus;whiteSpace=wrap;html=1;rounded=0;" vertex="1" parent="1">
          <mxGeometry x="670" y="240" width="80" height="80" as="geometry" />
        </mxCell>
        <mxCell id="imG781Llk6iRTIa5phaK-11" value="" style="edgeStyle=orthogonalEdgeStyle;rounded=0;orthogonalLoop=1;jettySize=auto;html=1;" edge="1" parent="1" source="imG781Llk6iRTIa5phaK-8" target="imG781Llk6iRTIa5phaK-10">
          <mxGeometry relative="1" as="geometry" />
        </mxCell>
        <mxCell id="imG781Llk6iRTIa5phaK-8" value="Teater" style="whiteSpace=wrap;html=1;rounded=0;" vertex="1" parent="1">
          <mxGeometry x="470" y="370" width="120" height="60" as="geometry" />
        </mxCell>
        <mxCell id="imG781Llk6iRTIa5phaK-13" value="" style="edgeStyle=orthogonalEdgeStyle;rounded=0;orthogonalLoop=1;jettySize=auto;html=1;" edge="1" parent="1" source="imG781Llk6iRTIa5phaK-10" target="imG781Llk6iRTIa5phaK-12">
          <mxGeometry relative="1" as="geometry" />
        </mxCell>
        <mxCell id="imG781Llk6iRTIa5phaK-10" value="1 to m" style="rhombus;whiteSpace=wrap;html=1;rounded=0;" vertex="1" parent="1">
          <mxGeometry x="490" y="490" width="80" height="80" as="geometry" />
        </mxCell>
        <mxCell id="imG781Llk6iRTIa5phaK-12" value="Kursi" style="whiteSpace=wrap;html=1;rounded=0;" vertex="1" parent="1">
          <mxGeometry x="660" y="500" width="120" height="60" as="geometry" />
        </mxCell>
        <mxCell id="imG781Llk6iRTIa5phaK-17" value="" style="edgeStyle=orthogonalEdgeStyle;rounded=0;orthogonalLoop=1;jettySize=auto;html=1;" edge="1" parent="1" source="imG781Llk6iRTIa5phaK-14" target="imG781Llk6iRTIa5phaK-16">
          <mxGeometry relative="1" as="geometry" />
        </mxCell>
        <mxCell id="imG781Llk6iRTIa5phaK-14" value="" style="rhombus;whiteSpace=wrap;html=1;rounded=0;" vertex="1" parent="1">
          <mxGeometry x="130" y="280" width="80" height="80" as="geometry" />
        </mxCell>
        <mxCell id="imG781Llk6iRTIa5phaK-16" value="Jadwal" style="whiteSpace=wrap;html=1;rounded=0;" vertex="1" parent="1">
          <mxGeometry x="110" y="400" width="120" height="60" as="geometry" />
        </mxCell>
        <mxCell id="imG781Llk6iRTIa5phaK-22" value="id" style="ellipse;whiteSpace=wrap;html=1;" vertex="1" parent="1">
          <mxGeometry x="70" y="100" width="50" height="30" as="geometry" />
        </mxCell>
        <mxCell id="imG781Llk6iRTIa5phaK-23" value="nama" style="ellipse;whiteSpace=wrap;html=1;" vertex="1" parent="1">
          <mxGeometry x="20" y="180" width="50" height="30" as="geometry" />
        </mxCell>
        <mxCell id="imG781Llk6iRTIa5phaK-24" value="password" style="ellipse;whiteSpace=wrap;html=1;" vertex="1" parent="1">
          <mxGeometry x="160" y="90" width="60" height="30" as="geometry" />
        </mxCell>
        <mxCell id="imG781Llk6iRTIa5phaK-25" value="id" style="ellipse;whiteSpace=wrap;html=1;" vertex="1" parent="1">
          <mxGeometry x="414" y="130" width="50" height="30" as="geometry" />
        </mxCell>
        <mxCell id="imG781Llk6iRTIa5phaK-26" value="judul" style="ellipse;whiteSpace=wrap;html=1;" vertex="1" parent="1">
          <mxGeometry x="460" y="50" width="50" height="30" as="geometry" />
        </mxCell>
        <mxCell id="imG781Llk6iRTIa5phaK-27" value="deskripsi" style="ellipse;whiteSpace=wrap;html=1;" vertex="1" parent="1">
          <mxGeometry x="550" y="30" width="50" height="30" as="geometry" />
        </mxCell>
        <mxCell id="imG781Llk6iRTIa5phaK-28" value="rating" style="ellipse;whiteSpace=wrap;html=1;" vertex="1" parent="1">
          <mxGeometry x="620" y="40" width="50" height="30" as="geometry" />
        </mxCell>
        <mxCell id="imG781Llk6iRTIa5phaK-29" value="produksi" style="ellipse;whiteSpace=wrap;html=1;" vertex="1" parent="1">
          <mxGeometry x="680" y="70" width="50" height="30" as="geometry" />
        </mxCell>
        <mxCell id="imG781Llk6iRTIa5phaK-30" value="distributor" style="ellipse;whiteSpace=wrap;html=1;" vertex="1" parent="1">
          <mxGeometry x="670" y="130" width="70" height="30" as="geometry" />
        </mxCell>
        <mxCell id="imG781Llk6iRTIa5phaK-31" value="durasi" style="ellipse;whiteSpace=wrap;html=1;" vertex="1" parent="1">
          <mxGeometry x="390" y="80" width="50" height="30" as="geometry" />
        </mxCell>
        <mxCell id="imG781Llk6iRTIa5phaK-36" value="id" style="ellipse;whiteSpace=wrap;html=1;" vertex="1" parent="1">
          <mxGeometry x="389" y="340" width="50" height="30" as="geometry" />
        </mxCell>
        <mxCell id="imG781Llk6iRTIa5phaK-37" value="nama" style="ellipse;whiteSpace=wrap;html=1;" vertex="1" parent="1">
          <mxGeometry x="389" y="430" width="50" height="30" as="geometry" />
        </mxCell>
        <mxCell id="imG781Llk6iRTIa5phaK-38" value="id" style="ellipse;whiteSpace=wrap;html=1;" vertex="1" parent="1">
          <mxGeometry x="685" y="600" width="50" height="30" as="geometry" />
        </mxCell>
        <mxCell id="imG781Llk6iRTIa5phaK-39" value="nama" style="ellipse;whiteSpace=wrap;html=1;" vertex="1" parent="1">
          <mxGeometry x="770" y="600" width="50" height="30" as="geometry" />
        </mxCell>
        <mxCell id="imG781Llk6iRTIa5phaK-40" value="teater_id" style="ellipse;whiteSpace=wrap;html=1;" vertex="1" parent="1">
          <mxGeometry x="600" y="600" width="50" height="30" as="geometry" />
        </mxCell>
        <mxCell id="imG781Llk6iRTIa5phaK-41" value="id" style="ellipse;whiteSpace=wrap;html=1;" vertex="1" parent="1">
          <mxGeometry x="30" y="385" width="50" height="30" as="geometry" />
        </mxCell>
        <mxCell id="imG781Llk6iRTIa5phaK-42" value="hari" style="ellipse;whiteSpace=wrap;html=1;" vertex="1" parent="1">
          <mxGeometry x="30" y="460" width="50" height="30" as="geometry" />
        </mxCell>
        <mxCell id="imG781Llk6iRTIa5phaK-43" value="jam" style="ellipse;whiteSpace=wrap;html=1;" vertex="1" parent="1">
          <mxGeometry x="80" y="515" width="50" height="30" as="geometry" />
        </mxCell>
        <mxCell id="imG781Llk6iRTIa5phaK-44" value="teater_id" style="ellipse;whiteSpace=wrap;html=1;" vertex="1" parent="1">
          <mxGeometry x="270" y="460" width="50" height="30" as="geometry" />
        </mxCell>
        <mxCell id="imG781Llk6iRTIa5phaK-45" value="harga" style="ellipse;whiteSpace=wrap;html=1;" vertex="1" parent="1">
          <mxGeometry x="160" y="525" width="50" height="30" as="geometry" />
        </mxCell>
        <mxCell id="imG781Llk6iRTIa5phaK-46" value="film_id" style="ellipse;whiteSpace=wrap;html=1;" vertex="1" parent="1">
          <mxGeometry x="250" y="525" width="50" height="30" as="geometry" />
        </mxCell>
        <mxCell id="imG781Llk6iRTIa5phaK-50" value="" style="endArrow=none;html=1;rounded=0;entryX=0;entryY=0.75;entryDx=0;entryDy=0;exitX=1;exitY=0.5;exitDx=0;exitDy=0;" edge="1" parent="1" source="imG781Llk6iRTIa5phaK-23" target="imG781Llk6iRTIa5phaK-1">
          <mxGeometry width="50" height="50" relative="1" as="geometry">
            <mxPoint x="40" y="310" as="sourcePoint" />
            <mxPoint x="90" y="260" as="targetPoint" />
          </mxGeometry>
        </mxCell>
        <mxCell id="imG781Llk6iRTIa5phaK-53" value="" style="endArrow=none;html=1;rounded=0;exitX=0.25;exitY=0;exitDx=0;exitDy=0;entryX=1;entryY=1;entryDx=0;entryDy=0;" edge="1" parent="1" source="imG781Llk6iRTIa5phaK-1" target="imG781Llk6iRTIa5phaK-22">
          <mxGeometry width="50" height="50" relative="1" as="geometry">
            <mxPoint x="390" y="320" as="sourcePoint" />
            <mxPoint x="440" y="270" as="targetPoint" />
          </mxGeometry>
        </mxCell>
        <mxCell id="imG781Llk6iRTIa5phaK-54" value="" style="endArrow=none;html=1;rounded=0;exitX=0.75;exitY=0;exitDx=0;exitDy=0;entryX=0.5;entryY=1;entryDx=0;entryDy=0;" edge="1" parent="1" source="imG781Llk6iRTIa5phaK-1" target="imG781Llk6iRTIa5phaK-24">
          <mxGeometry width="50" height="50" relative="1" as="geometry">
            <mxPoint x="390" y="320" as="sourcePoint" />
            <mxPoint x="440" y="270" as="targetPoint" />
          </mxGeometry>
        </mxCell>
        <mxCell id="imG781Llk6iRTIa5phaK-55" value="" style="endArrow=none;html=1;rounded=0;entryX=0;entryY=0;entryDx=0;entryDy=0;exitX=0.5;exitY=1;exitDx=0;exitDy=0;" edge="1" parent="1" source="imG781Llk6iRTIa5phaK-25" target="imG781Llk6iRTIa5phaK-4">
          <mxGeometry width="50" height="50" relative="1" as="geometry">
            <mxPoint x="390" y="320" as="sourcePoint" />
            <mxPoint x="440" y="270" as="targetPoint" />
          </mxGeometry>
        </mxCell>
        <mxCell id="imG781Llk6iRTIa5phaK-56" value="" style="endArrow=none;html=1;rounded=0;entryX=1;entryY=0.5;entryDx=0;entryDy=0;exitX=0.25;exitY=0;exitDx=0;exitDy=0;" edge="1" parent="1" source="imG781Llk6iRTIa5phaK-4" target="imG781Llk6iRTIa5phaK-31">
          <mxGeometry width="50" height="50" relative="1" as="geometry">
            <mxPoint x="390" y="320" as="sourcePoint" />
            <mxPoint x="440" y="270" as="targetPoint" />
          </mxGeometry>
        </mxCell>
        <mxCell id="imG781Llk6iRTIa5phaK-57" value="" style="endArrow=none;html=1;rounded=0;entryX=1;entryY=1;entryDx=0;entryDy=0;exitX=0.5;exitY=0;exitDx=0;exitDy=0;" edge="1" parent="1" source="imG781Llk6iRTIa5phaK-4" target="imG781Llk6iRTIa5phaK-26">
          <mxGeometry width="50" height="50" relative="1" as="geometry">
            <mxPoint x="390" y="320" as="sourcePoint" />
            <mxPoint x="440" y="270" as="targetPoint" />
          </mxGeometry>
        </mxCell>
        <mxCell id="imG781Llk6iRTIa5phaK-58" value="" style="endArrow=none;html=1;rounded=0;entryX=0.5;entryY=1;entryDx=0;entryDy=0;exitX=0.75;exitY=0;exitDx=0;exitDy=0;" edge="1" parent="1" source="imG781Llk6iRTIa5phaK-4" target="imG781Llk6iRTIa5phaK-27">
          <mxGeometry width="50" height="50" relative="1" as="geometry">
            <mxPoint x="390" y="320" as="sourcePoint" />
            <mxPoint x="440" y="270" as="targetPoint" />
          </mxGeometry>
        </mxCell>
        <mxCell id="imG781Llk6iRTIa5phaK-59" value="" style="endArrow=none;html=1;rounded=0;entryX=0.5;entryY=1;entryDx=0;entryDy=0;exitX=1;exitY=0;exitDx=0;exitDy=0;" edge="1" parent="1" source="imG781Llk6iRTIa5phaK-4" target="imG781Llk6iRTIa5phaK-28">
          <mxGeometry width="50" height="50" relative="1" as="geometry">
            <mxPoint x="390" y="320" as="sourcePoint" />
            <mxPoint x="440" y="270" as="targetPoint" />
          </mxGeometry>
        </mxCell>
        <mxCell id="imG781Llk6iRTIa5phaK-60" value="" style="endArrow=none;html=1;rounded=0;entryX=0;entryY=1;entryDx=0;entryDy=0;exitX=1;exitY=0.25;exitDx=0;exitDy=0;" edge="1" parent="1" source="imG781Llk6iRTIa5phaK-4" target="imG781Llk6iRTIa5phaK-29">
          <mxGeometry width="50" height="50" relative="1" as="geometry">
            <mxPoint x="390" y="320" as="sourcePoint" />
            <mxPoint x="440" y="270" as="targetPoint" />
          </mxGeometry>
        </mxCell>
        <mxCell id="imG781Llk6iRTIa5phaK-61" value="" style="endArrow=none;html=1;rounded=0;entryX=0;entryY=1;entryDx=0;entryDy=0;exitX=1;exitY=0.25;exitDx=0;exitDy=0;" edge="1" parent="1" source="imG781Llk6iRTIa5phaK-4" target="imG781Llk6iRTIa5phaK-30">
          <mxGeometry width="50" height="50" relative="1" as="geometry">
            <mxPoint x="390" y="320" as="sourcePoint" />
            <mxPoint x="440" y="270" as="targetPoint" />
          </mxGeometry>
        </mxCell>
        <mxCell id="imG781Llk6iRTIa5phaK-62" value="" style="endArrow=none;html=1;rounded=0;exitX=1;exitY=1;exitDx=0;exitDy=0;entryX=0;entryY=0.5;entryDx=0;entryDy=0;" edge="1" parent="1" source="imG781Llk6iRTIa5phaK-36" target="imG781Llk6iRTIa5phaK-8">
          <mxGeometry width="50" height="50" relative="1" as="geometry">
            <mxPoint x="390" y="320" as="sourcePoint" />
            <mxPoint x="440" y="270" as="targetPoint" />
          </mxGeometry>
        </mxCell>
        <mxCell id="imG781Llk6iRTIa5phaK-63" value="" style="endArrow=none;html=1;rounded=0;exitX=1;exitY=0.5;exitDx=0;exitDy=0;entryX=0.25;entryY=1;entryDx=0;entryDy=0;" edge="1" parent="1" source="imG781Llk6iRTIa5phaK-37" target="imG781Llk6iRTIa5phaK-8">
          <mxGeometry width="50" height="50" relative="1" as="geometry">
            <mxPoint x="390" y="320" as="sourcePoint" />
            <mxPoint x="440" y="270" as="targetPoint" />
          </mxGeometry>
        </mxCell>
        <mxCell id="imG781Llk6iRTIa5phaK-64" value="" style="endArrow=none;html=1;rounded=0;exitX=0.5;exitY=0;exitDx=0;exitDy=0;entryX=0.25;entryY=1;entryDx=0;entryDy=0;" edge="1" parent="1" source="imG781Llk6iRTIa5phaK-40" target="imG781Llk6iRTIa5phaK-12">
          <mxGeometry width="50" height="50" relative="1" as="geometry">
            <mxPoint x="390" y="460" as="sourcePoint" />
            <mxPoint x="440" y="410" as="targetPoint" />
          </mxGeometry>
        </mxCell>
        <mxCell id="imG781Llk6iRTIa5phaK-65" value="" style="endArrow=none;html=1;rounded=0;entryX=0.5;entryY=1;entryDx=0;entryDy=0;exitX=0.5;exitY=0;exitDx=0;exitDy=0;" edge="1" parent="1" source="imG781Llk6iRTIa5phaK-38" target="imG781Llk6iRTIa5phaK-12">
          <mxGeometry width="50" height="50" relative="1" as="geometry">
            <mxPoint x="390" y="460" as="sourcePoint" />
            <mxPoint x="440" y="410" as="targetPoint" />
          </mxGeometry>
        </mxCell>
        <mxCell id="imG781Llk6iRTIa5phaK-66" value="" style="endArrow=none;html=1;rounded=0;entryX=1;entryY=1;entryDx=0;entryDy=0;exitX=0.5;exitY=0;exitDx=0;exitDy=0;" edge="1" parent="1" source="imG781Llk6iRTIa5phaK-39" target="imG781Llk6iRTIa5phaK-12">
          <mxGeometry width="50" height="50" relative="1" as="geometry">
            <mxPoint x="390" y="460" as="sourcePoint" />
            <mxPoint x="440" y="410" as="targetPoint" />
          </mxGeometry>
        </mxCell>
        <mxCell id="imG781Llk6iRTIa5phaK-67" value="" style="endArrow=none;html=1;rounded=0;exitX=1;exitY=1;exitDx=0;exitDy=0;entryX=0;entryY=0.5;entryDx=0;entryDy=0;" edge="1" parent="1" source="imG781Llk6iRTIa5phaK-41" target="imG781Llk6iRTIa5phaK-16">
          <mxGeometry width="50" height="50" relative="1" as="geometry">
            <mxPoint x="390" y="320" as="sourcePoint" />
            <mxPoint x="440" y="270" as="targetPoint" />
          </mxGeometry>
        </mxCell>
        <mxCell id="imG781Llk6iRTIa5phaK-69" value="" style="endArrow=none;html=1;rounded=0;exitX=1;exitY=0.5;exitDx=0;exitDy=0;entryX=0.14;entryY=0.997;entryDx=0;entryDy=0;entryPerimeter=0;" edge="1" parent="1" source="imG781Llk6iRTIa5phaK-42" target="imG781Llk6iRTIa5phaK-16">
          <mxGeometry width="50" height="50" relative="1" as="geometry">
            <mxPoint x="83" y="421" as="sourcePoint" />
            <mxPoint x="120" y="440" as="targetPoint" />
          </mxGeometry>
        </mxCell>
        <mxCell id="imG781Llk6iRTIa5phaK-70" value="" style="endArrow=none;html=1;rounded=0;exitX=1;exitY=0;exitDx=0;exitDy=0;entryX=0.407;entryY=1.01;entryDx=0;entryDy=0;entryPerimeter=0;" edge="1" parent="1" source="imG781Llk6iRTIa5phaK-43" target="imG781Llk6iRTIa5phaK-16">
          <mxGeometry width="50" height="50" relative="1" as="geometry">
            <mxPoint x="93" y="431" as="sourcePoint" />
            <mxPoint x="130" y="450" as="targetPoint" />
          </mxGeometry>
        </mxCell>
        <mxCell id="imG781Llk6iRTIa5phaK-71" value="" style="endArrow=none;html=1;rounded=0;exitX=0.5;exitY=0;exitDx=0;exitDy=0;entryX=0.75;entryY=1;entryDx=0;entryDy=0;" edge="1" parent="1" source="imG781Llk6iRTIa5phaK-45" target="imG781Llk6iRTIa5phaK-16">
          <mxGeometry width="50" height="50" relative="1" as="geometry">
            <mxPoint x="103" y="441" as="sourcePoint" />
            <mxPoint x="140" y="460" as="targetPoint" />
          </mxGeometry>
        </mxCell>
        <mxCell id="imG781Llk6iRTIa5phaK-72" value="" style="endArrow=none;html=1;rounded=0;exitX=0;exitY=0;exitDx=0;exitDy=0;entryX=0.993;entryY=0.383;entryDx=0;entryDy=0;entryPerimeter=0;" edge="1" parent="1" source="imG781Llk6iRTIa5phaK-44" target="imG781Llk6iRTIa5phaK-16">
          <mxGeometry width="50" height="50" relative="1" as="geometry">
            <mxPoint x="113" y="451" as="sourcePoint" />
            <mxPoint x="150" y="470" as="targetPoint" />
          </mxGeometry>
        </mxCell>
        <mxCell id="imG781Llk6iRTIa5phaK-73" value="" style="endArrow=none;html=1;rounded=0;exitX=0.288;exitY=0.12;exitDx=0;exitDy=0;entryX=1;entryY=1;entryDx=0;entryDy=0;exitPerimeter=0;" edge="1" parent="1" source="imG781Llk6iRTIa5phaK-46" target="imG781Llk6iRTIa5phaK-16">
          <mxGeometry width="50" height="50" relative="1" as="geometry">
            <mxPoint x="123" y="461" as="sourcePoint" />
            <mxPoint x="160" y="480" as="targetPoint" />
          </mxGeometry>
        </mxCell>
      </root>
    </mxGraphModel>
  </diagram>
</mxfile>
